<svg width="32" height="32" viewBox="0 0 32 32" fill="none" xmlns="http://www.w3.org/2000/svg">
<path d="M16 32C24.8365 32 31.9999 24.8365 31.9999 16C31.9999 7.16344 24.8365 0 16 0C7.16344 0 0 7.16344 0 16C0 24.8365 7.16344 32 16 32Z" fill="url(#paint0_linear_1991_80682)"/>
<path d="M23.3089 14.043L16.3089 26.643C16.1829 26.867 15.9519 27 15.6999 27C15.6439 27 15.5809 26.993 15.5249 26.979C15.2169 26.895 14.9999 26.622 14.9999 26.3V18.6H8.69993C8.46193 18.6 8.24493 18.481 8.11193 18.285C7.98593 18.089 7.96493 17.837 8.05593 17.62L12.9559 6.42C13.0679 6.168 13.3199 6 13.5999 6H17.7999C18.0309 6 18.2479 6.112 18.3809 6.308C18.5069 6.497 18.5349 6.742 18.4509 6.959L16.0359 13H22.6999C22.9449 13 23.1759 13.133 23.3019 13.343C23.4279 13.56 23.4349 13.826 23.3089 14.043Z" fill="url(#paint1_linear_1991_80682)"/>
<defs>
<linearGradient id="paint0_linear_1991_80682" x1="11" y1="11.5" x2="53" y2="44" gradientUnits="userSpaceOnUse">
<stop stop-color="#FFC738"/>
<stop offset="1" stop-color="#FFC738" stop-opacity="0"/>
<stop offset="1" stop-color="#E2B542"/>
</linearGradient>
<linearGradient id="paint1_linear_1991_80682" x1="16" y1="-17" x2="30" y2="75" gradientUnits="userSpaceOnUse">
<stop stop-color="#1B1A16"/>
<stop offset="1" stop-color="#1B1A16" stop-opacity="0.76"/>
</linearGradient>
</defs>
</svg>
